<svg width="31" height="26" viewBox="0 0 31 26" fill="none" xmlns="http://www.w3.org/2000/svg">
<path d="M23.9625 15.7451C23.5546 15.5825 23.0447 15.6638 22.7388 15.9078C21.6172 16.884 19.9857 17.5348 18.0482 17.5348C16.1108 17.5348 14.4793 16.884 13.3577 15.9078C13.0517 15.6638 12.5419 15.5825 12.134 15.7451C8.5651 17.2094 6.11783 21.114 5.70996 24.2865C5.60799 24.6932 6.11783 25.0999 6.72965 25.0999H29.2649C29.8767 25.0999 30.2846 24.6932 30.2846 24.2865C29.9787 21.114 27.5314 17.128 23.9625 15.7451Z" fill="#BDBDC7"/>
<path d="M18.0488 13.1694C21.5967 13.1694 24.4729 10.2933 24.4729 6.74536C24.4729 3.19744 21.5967 0.321289 18.0488 0.321289C14.5009 0.321289 11.6248 3.19744 11.6248 6.74536C11.6248 10.2933 14.5009 13.1694 18.0488 13.1694Z" fill="#BDBDC7"/>
<path d="M3.56893 11.7422C2.95711 11.7422 2.54923 12.15 2.54923 12.7619V14.2914H1.01969C0.407877 14.2914 0 14.6993 0 15.3111C0 15.9229 0.407877 16.3308 1.01969 16.3308H2.54923V17.7584C2.54923 18.3702 2.95711 18.7781 3.56893 18.7781C4.18074 18.7781 4.58862 18.3702 4.58862 17.7584V16.3308H6.11816C6.72998 16.3308 7.13785 15.9229 7.13785 15.3111C7.13785 14.6993 6.72998 14.2914 6.11816 14.2914H4.58862V12.7619C4.58862 12.15 4.07877 11.7422 3.56893 11.7422Z" fill="#BDBDC7"/>
</svg>
