<svg width="22" height="27" viewBox="0 0 22 27" fill="none" xmlns="http://www.w3.org/2000/svg">
<path fill-rule="evenodd" clip-rule="evenodd" d="M0 1.64246C0 0.912796 0.591507 0.321289 1.32117 0.321289H19.8175C20.5472 0.321289 21.1387 0.912796 21.1387 1.64246V24.7629C21.1387 25.2726 20.8455 25.7368 20.3853 25.9558C19.9251 26.1749 19.38 26.1097 18.9844 25.7883L10.5693 18.951L2.15429 25.7883C1.75872 26.1097 1.21357 26.1749 0.753367 25.9558C0.293166 25.7368 0 25.2726 0 24.7629V1.64246ZM2.64234 2.96362V21.9872L9.73622 16.2234C10.2216 15.829 10.9171 15.829 11.4025 16.2234L18.4963 21.9872V2.96362H2.64234Z" fill="#BDBDC7"/>
</svg>
