<svg width="25" height="24" viewBox="0 0 25 24" fill="none" xmlns="http://www.w3.org/2000/svg">
<g clip-path="url(#clip0)">
<path d="M24.9998 11.3924C24.9998 11.5677 24.9998 11.8306 24.9998 12.0059C24.9998 12.0935 24.9078 12.1811 24.9078 12.2688C24.5397 13.5833 23.1595 14.6349 21.7793 14.6349C21.5032 14.6349 21.4112 14.7225 21.2272 14.8978C21.0431 15.3359 21.0431 15.4236 21.3192 15.7741C22.7914 17.1763 22.3314 19.5424 20.4911 20.4187C19.2028 21.0322 17.9146 20.7692 16.9024 19.8053C16.7184 19.63 16.4424 19.5424 16.1663 19.63C15.8903 19.7176 15.7062 19.8929 15.7062 20.2434C15.7062 21.2074 15.3382 21.9961 14.51 22.6096C14.05 22.9601 13.4979 23.223 12.9458 23.3106C12.7617 23.3106 12.4857 23.3106 12.3017 23.3106C12.2096 23.3106 12.2096 23.3106 12.1176 23.223C10.7374 22.9601 9.54119 21.7332 9.54119 20.3311C9.54119 19.9805 9.35716 19.8053 9.08111 19.63C8.71305 19.5424 8.52902 19.5424 8.25297 19.8053C6.41266 21.4703 4.11227 20.5063 3.37614 19.1918C2.73203 17.965 2.91606 16.6505 3.92824 15.6865C4.11227 15.5112 4.20428 15.2483 4.11227 14.9854C4.02025 14.7225 3.83622 14.5472 3.46816 14.5472C2.45599 14.5472 1.62784 14.1967 0.983735 13.408C0.799703 13.1451 0.615672 12.6193 0.431641 12.0935C0.431641 11.9182 0.431641 11.6553 0.431641 11.48C0.431641 11.3924 0.431641 11.3924 0.523656 11.3048C0.799703 9.99027 2.27195 8.85103 3.56017 8.85103C3.92824 8.85103 4.11227 8.7634 4.20428 8.41286C4.2963 8.06232 4.2963 7.88706 4.02025 7.62415C3.19211 6.66018 2.82405 5.60857 3.37614 4.46933C3.83622 3.33009 4.84839 2.71665 6.13661 2.62902C7.05677 2.54138 7.88491 2.89192 8.437 3.50536C8.80507 3.85589 9.08111 3.59299 9.35716 3.50536C9.63321 3.50536 9.63321 3.24246 9.63321 3.06719C9.63321 2.10321 10.0933 1.31451 10.8294 0.701072C11.2895 0.350536 11.8416 0.087634 12.3937 0C12.5777 0 12.8538 0 13.0378 0C13.2218 0 13.3138 0.087634 13.4979 0.087634C14.7861 0.43817 15.8903 1.75268 15.7983 2.97955C15.7983 3.24246 15.8903 3.41772 16.1663 3.50536C16.5344 3.68063 16.6264 3.68063 16.9945 3.33009C18.0066 2.54138 19.1108 2.19085 20.307 2.71665C21.5032 3.15482 22.1473 4.1188 22.2394 5.34567C22.3314 6.22201 21.9633 6.92308 21.3192 7.53652C20.9511 7.88706 21.2272 8.14996 21.3192 8.41286C21.4112 8.67576 21.5952 8.67576 21.8713 8.67576C22.8835 8.67576 23.7116 9.11393 24.3557 9.815C24.6318 10.3408 24.8158 10.8666 24.9998 11.3924ZM6.22863 4.55697C5.76855 4.55697 5.4925 4.81987 5.21645 5.1704C5.03242 5.52094 5.21645 5.95911 5.4925 6.22201C6.22863 7.01072 6.50467 7.97469 6.13661 8.93866C5.86056 9.99027 5.03242 10.5161 3.92824 10.779C3.65219 10.8666 3.46816 10.779 3.19211 10.8666C2.73203 10.9542 2.548 11.1295 2.45599 11.5677C2.45599 11.6553 2.45599 11.8306 2.45599 11.9182C2.45599 12.444 2.73203 12.7069 3.37614 12.7946C3.46816 12.7946 3.56017 12.7946 3.65219 12.7946C4.75638 12.7946 5.86056 13.4956 6.22863 14.372C6.59669 15.4236 6.41266 16.3876 5.58452 17.2639C5.21645 17.6144 5.21645 18.3155 5.58452 18.666C5.95258 19.0166 6.68871 19.0166 7.05677 18.666C7.88491 17.8773 8.89708 17.7021 9.90925 18.0526C10.9214 18.4031 11.5655 19.1918 11.7496 20.1558C11.8416 20.4187 11.7496 20.594 11.8416 20.8569C11.9336 21.2074 12.1176 21.4703 12.4857 21.4703C12.7617 21.4703 12.9458 21.4703 13.2218 21.4703C13.5899 21.3827 13.7739 21.2074 13.8659 20.8569C13.8659 20.6816 13.8659 20.5063 13.8659 20.3311C13.8659 19.1918 14.8781 18.0526 15.9823 17.8773C16.9024 17.7021 17.8226 17.965 18.5587 18.5784C18.9268 18.9289 19.2949 18.9289 19.6629 18.7537C20.031 18.5784 20.307 18.3155 20.307 17.8773C20.307 17.6144 20.215 17.3515 19.939 17.0886C19.2028 16.2999 19.0188 15.3359 19.2949 14.372C19.5709 13.4956 20.307 12.9698 21.2272 12.7069C21.5032 12.6193 21.8713 12.6193 22.1473 12.6193C22.6074 12.6193 22.7914 12.3564 22.8835 12.0059C22.9755 11.48 22.8835 11.0419 22.5154 10.8666C22.4234 10.8666 22.3314 10.779 22.3314 10.779C22.1473 10.779 22.0553 10.6913 21.8713 10.6913C20.8591 10.6913 20.123 10.2532 19.4789 9.5521C18.8348 8.7634 18.9268 7.09835 19.8469 6.22201C19.939 6.13438 20.123 5.95911 20.123 5.78384C20.307 5.34567 20.031 4.81987 19.6629 4.6446C19.2949 4.46933 18.7428 4.55697 18.4667 4.81987C17.7306 5.52094 16.8104 5.69621 15.8903 5.52094C14.8781 5.34567 14.326 4.6446 13.9579 3.76826C13.8659 3.50536 13.8659 3.15482 13.7739 2.80429C13.7739 2.36612 13.4979 2.10321 13.1298 2.01558C12.3017 1.92795 11.7496 2.10321 11.7496 3.06719V3.15482C11.6576 4.20643 11.1975 5.08277 10.1853 5.52094C9.17313 5.87148 7.79289 5.69621 6.96475 4.9075C6.78072 4.73223 6.50467 4.55697 6.22863 4.55697Z" fill="#2EB349"/>
<path d="M9.63281 12.1435L11.4479 13.8962C11.5992 14.0631 11.9017 14.0631 12.053 13.8962L16.9941 9.63965" stroke="#2EB349" stroke-width="2" stroke-miterlimit="10" stroke-linecap="round"/>
</g>
<defs>
<clipPath id="clip0">
<rect width="24.5682" height="23.3983" fill="white" transform="translate(0.431641)"/>
</clipPath>
</defs>
</svg>
