<svg width="42" height="21" viewBox="0 0 42 21" fill="none" xmlns="http://www.w3.org/2000/svg">
<rect x="1" y="1.14062" width="39.6139" height="18.8069" rx="9.40346" stroke="#4E8EF8" stroke-width="2"/>
<path d="M11.2833 12.183V16.4253H8.80249V4.38492H13.4995C14.4037 4.38492 15.1975 4.55031 15.8812 4.88109C16.5703 5.21187 17.0995 5.68322 17.4689 6.29517C17.8383 6.90159 18.0229 7.59347 18.0229 8.3708C18.0229 9.55058 17.6177 10.4823 16.8073 11.1659C16.0024 11.844 14.8861 12.183 13.4582 12.183H11.2833ZM11.2833 10.1735H13.4995C14.1556 10.1735 14.6545 10.0192 14.9963 9.71046C15.3436 9.40173 15.5173 8.96069 15.5173 8.38734C15.5173 7.79745 15.3436 7.32058 14.9963 6.95672C14.649 6.59287 14.1694 6.40543 13.5574 6.3944H11.2833V10.1735Z" fill="#4E8EF8"/>
<path d="M24.6054 9.71873C24.2802 9.67462 23.9935 9.65257 23.7454 9.65257C22.8413 9.65257 22.2486 9.95854 21.9675 10.5705V16.4253H19.5776V7.4777H21.8352L21.9013 8.54446C22.381 7.72303 23.0453 7.31231 23.8943 7.31231C24.1589 7.31231 24.407 7.34814 24.6385 7.41981L24.6054 9.71873Z" fill="#4E8EF8"/>
<path d="M25.0933 11.8688C25.0933 10.9812 25.2642 10.1901 25.6061 9.49545C25.9479 8.80081 26.4385 8.2633 27.078 7.8829C27.723 7.50251 28.47 7.31231 29.319 7.31231C30.5264 7.31231 31.5105 7.68168 32.2712 8.42042C33.0375 9.15916 33.4648 10.1625 33.553 11.4305L33.5696 12.0424C33.5696 13.4152 33.1864 14.5178 32.4201 15.3502C31.6538 16.1772 30.6256 16.5907 29.3356 16.5907C28.0455 16.5907 27.0146 16.1772 26.2428 15.3502C25.4765 14.5233 25.0933 13.3986 25.0933 11.9763V11.8688ZM27.4832 12.0424C27.4832 12.8914 27.6431 13.542 27.9629 13.994C28.2826 14.4406 28.7402 14.6639 29.3356 14.6639C29.9144 14.6639 30.3665 14.4433 30.6918 14.0023C31.017 13.5558 31.1797 12.8446 31.1797 11.8688C31.1797 11.0363 31.017 10.3913 30.6918 9.93373C30.3665 9.47615 29.9089 9.24737 29.319 9.24737C28.7347 9.24737 28.2826 9.47615 27.9629 9.93373C27.6431 10.3858 27.4832 11.0887 27.4832 12.0424Z" fill="#4E8EF8"/>
</svg>
