<svg width="25" height="26" viewBox="0 0 25 26" fill="none" xmlns="http://www.w3.org/2000/svg">
<path fill-rule="evenodd" clip-rule="evenodd" d="M19.2673 2.03449e-05C19.5851 -0.00184788 19.89 0.125019 20.1126 0.351699L23.8011 4.10706C24.2463 4.56039 24.2506 5.28552 23.8107 5.74404L11.6303 18.4408C11.5018 18.5747 11.3434 18.6763 11.168 18.7373L5.76404 20.6149C5.34441 20.7608 4.87843 20.6575 4.55971 20.348C4.241 20.0385 4.12403 19.5758 4.25742 19.1521L6.05874 13.4296C6.11304 13.2571 6.20643 13.0994 6.33164 12.9689L18.4262 0.361615C18.6462 0.132333 18.9496 0.00188857 19.2673 2.03449e-05ZM19.2842 2.86231L17.8918 4.31365L19.8852 6.44096L21.325 4.94014L19.2842 2.86231ZM8.21803 14.3976L16.2625 6.0121L18.2558 8.13941L10.1298 16.6099L7.20133 17.6274L8.21803 14.3976ZM1.17515 4.11317C0.526132 4.11317 0 4.6393 0 5.28831V24.0651C0 24.7141 0.526132 25.2403 1.17515 25.2403H19.2741C19.9232 25.2403 20.4493 24.7141 20.4493 24.0651V14.6767C20.4493 14.0277 19.9232 13.5016 19.2741 13.5016C18.6251 13.5016 18.099 14.0277 18.099 14.6767V22.89H2.3503V6.46346H10.6106C11.2597 6.46346 11.7858 5.93733 11.7858 5.28831C11.7858 4.6393 11.2597 4.11317 10.6106 4.11317H1.17515Z" fill="#BDBDC7"/>
</svg>
