<svg width="22" height="23" viewBox="0 0 22 23" fill="none" xmlns="http://www.w3.org/2000/svg">
<path d="M17.6 13.492C16.2764 13.492 15.092 14.0797 14.2852 15.0048L8.70183 12.2132C8.76508 11.916 8.8 11.608 8.8 11.292C8.8 10.976 8.76508 10.668 8.70183 10.371L14.2852 7.57922C15.0917 8.50459 16.2764 9.09199 17.6 9.09199C20.0299 9.09199 22 7.12189 22 4.69199C22 2.26209 20.0299 0.291992 17.6 0.291992C15.1701 0.291992 13.2 2.26209 13.2 4.69199C13.2 5.00797 13.2349 5.31597 13.2982 5.61297L7.71485 8.40477C6.90828 7.47939 5.72385 6.89199 4.4 6.89199C1.9701 6.89199 0 8.86209 0 11.292C0 13.7219 1.9701 15.692 4.4 15.692C5.72385 15.692 6.908 15.1043 7.71485 14.1792L13.2985 16.971C13.2349 17.268 13.2 17.576 13.2 17.892C13.2 20.3219 15.1701 22.292 17.6 22.292C20.0299 22.292 22 20.3219 22 17.892C22 15.4621 20.0299 13.492 17.6 13.492ZM17.6 2.49199C18.815 2.49199 19.8 3.47704 19.8 4.69199C19.8 5.90694 18.815 6.89199 17.6 6.89199C16.385 6.89199 15.4 5.90694 15.4 4.69199C15.4 3.47704 16.385 2.49199 17.6 2.49199ZM4.4 13.492C3.18505 13.492 2.2 12.5069 2.2 11.292C2.2 10.077 3.18505 9.09199 4.4 9.09199C5.61495 9.09199 6.6 10.077 6.6 11.292C6.6 12.5069 5.61495 13.492 4.4 13.492ZM17.6 20.092C16.385 20.092 15.4 19.1069 15.4 17.892C15.4 16.677 16.385 15.692 17.6 15.692C18.815 15.692 19.8 16.677 19.8 17.892C19.8 19.1069 18.815 20.092 17.6 20.092Z" fill="#BDBDC7"/>
</svg>
