<svg width="12" height="11" viewBox="0 0 12 11" fill="none" xmlns="http://www.w3.org/2000/svg">
<path d="M4.91048 0.781085C5.21809 -0.122601 6.49619 -0.1226 6.8038 0.781086L7.39048 2.50461C7.52842 2.90987 7.90904 3.18237 8.33714 3.18237H10.1331C11.113 3.18237 11.5082 4.44564 10.7029 5.0041L9.33126 5.95538C8.96437 6.20983 8.81061 6.67667 8.95449 7.09934L9.49709 8.69341C9.80794 9.60659 8.77322 10.3871 7.98055 9.83737L6.42702 8.75997C6.08428 8.52227 5.63 8.52227 5.28726 8.75997L3.73373 9.83737C2.94106 10.3871 1.90635 9.60659 2.21719 8.69341L2.7598 7.09934C2.90367 6.67667 2.74991 6.20983 2.38302 5.95538L1.01135 5.0041C0.206096 4.44564 0.601278 3.18237 1.58123 3.18237H3.37715C3.80525 3.18237 4.18586 2.90987 4.32381 2.50461L4.91048 0.781085Z" fill="#111B42"/>
</svg>
