<svg width="18" height="12" viewBox="0 0 18 12" fill="none" xmlns="http://www.w3.org/2000/svg">
<path fill-rule="evenodd" clip-rule="evenodd" d="M15.0449 2.78577C15.0449 4.3243 13.7976 5.57153 12.2591 5.57153C10.7206 5.57153 9.47333 4.3243 9.47333 2.78577C9.47333 1.24723 10.7206 0 12.2591 0C13.7976 0 15.0449 1.24723 15.0449 2.78577ZM7.39015 8.01354C7.52281 7.90771 7.7439 7.87244 7.92077 7.94299C9.46842 8.54267 10.5297 10.2712 10.6623 11.6469C10.6623 11.8233 10.4854 11.9996 10.2201 11.9996H0.447847C0.182536 11.9996 -0.0385561 11.8233 0.00566243 11.6469C0.182536 10.2712 1.24378 8.57794 2.79143 7.94299C2.9683 7.87244 3.18939 7.90771 3.32205 8.01354C3.80845 8.43684 4.51595 8.71904 5.3561 8.71904C6.19625 8.71904 6.90375 8.43684 7.39015 8.01354ZM14.293 6.75892C14.4256 6.6531 14.6467 6.61782 14.8236 6.68837C16.3713 7.28805 17.4325 9.01654 17.5652 10.3923C17.5652 10.5687 17.3883 10.745 17.123 10.745H11.1178C10.953 10.1942 10.6844 9.64245 10.3358 9.14448C9.86806 8.47635 9.23223 7.87083 8.45856 7.49429C8.821 7.15676 9.23634 6.87624 9.69426 6.68837C9.87114 6.61782 10.0922 6.6531 10.2249 6.75892C10.7113 7.18223 11.4188 7.46443 12.2589 7.46443C13.0991 7.46443 13.8066 7.18223 14.293 6.75892ZM8.14202 4.04038C8.14202 5.57892 6.89479 6.82615 5.35626 6.82615C3.81772 6.82615 2.57049 5.57892 2.57049 4.04038C2.57049 2.50185 3.81772 1.25462 5.35626 1.25462C6.89479 1.25462 8.14202 2.50185 8.14202 4.04038Z" fill="#111B42"/>
</svg>
