<svg width="9" height="10" viewBox="0 0 9 10" fill="none" xmlns="http://www.w3.org/2000/svg">
<path d="M1.26063 9.99991V8.50191H0.140625V7.14391H1.26063V6.05191H0.140625V4.31591H1.26063V0.00390625H4.45263C5.74063 0.00390625 6.67863 0.26524 7.26663 0.787906C7.86396 1.31057 8.16262 2.02924 8.16262 2.94391C8.16262 3.48524 8.04129 3.99391 7.79863 4.46991C7.55596 4.94591 7.14996 5.32857 6.58063 5.61791C6.02063 5.90724 5.25529 6.05191 4.28463 6.05191H3.37462V7.14391H5.53063V8.50191H3.37462V9.99991H1.26063ZM4.07463 4.31591C4.67196 4.31591 5.14329 4.21324 5.48863 4.00791C5.84329 3.80257 6.02063 3.47124 6.02063 3.01391C6.02063 2.16457 5.46063 1.73991 4.34063 1.73991H3.37462V4.31591H4.07463Z" fill="white"/>
</svg>
