<svg width="30" height="28" viewBox="0 0 30 28" fill="none" xmlns="http://www.w3.org/2000/svg">
<path d="M0 22.3208C0 15.3219 0 8.32303 0 1.21969C0.4 0.27954 0.699999 0.0706177 1.7 0.0706177C4.1 0.0706177 6.59999 0.0706177 8.99999 0.0706177C11.2 0.0706177 12.9 1.01077 14.3 2.68214C14.4 2.7866 14.4 2.89106 14.5 2.89106C14.5 2.89106 14.5 2.89106 14.6 2.89106C14.7 2.7866 14.7 2.7866 14.8 2.68214C16 1.11523 17.6 0.175079 19.6 0.0706177C22.3 0.0706177 25 0.0706177 27.7 0.0706177C28.3 0.0706177 28.8 0.488461 29 1.11523C29 1.21969 29 1.21969 29.1 1.32415C29.1 8.32303 29.1 15.3219 29.1 22.4253C28.7 23.3654 28.4 23.5743 27.4 23.5743C24.5 23.5743 21.5 23.5743 18.6 23.5743C16.9 23.5743 16 24.5145 15.9 26.2903C15.9 26.8126 15.7 27.126 15.4 27.4394C15.2 27.5438 15 27.6483 14.8 27.7528C14.7 27.7528 14.6 27.7528 14.4 27.7528C14.3 27.7528 14.2 27.6483 14.2 27.6483C13.6 27.4394 13.3 26.9171 13.3 26.0814C13.3 24.8279 12.6 23.8877 11.4 23.5743C11.1 23.4699 10.8 23.4699 10.5 23.4699C7.49999 23.4699 4.5 23.4699 1.5 23.4699C0.699999 23.4699 0.3 23.1565 0 22.3208C0 22.4253 0 22.3208 0 22.3208ZM13.2 21.4851C13.2 21.3807 13.2 21.2762 13.2 21.1717C13.2 16.471 13.2 11.8747 13.2 7.17396C13.2 6.96504 13.2 6.65166 13.2 6.44274C13.1 4.87582 12.1 3.62229 10.7 3.20445C10.2 3.09999 9.69999 2.99552 9.19999 2.99552C7.09999 2.99552 5.1 2.99552 3 2.99552C2.9 2.99552 2.8 2.99552 2.7 2.99552C2.7 8.9498 2.7 14.9041 2.7 20.9628C2.8 20.9628 3 20.9628 3.1 20.9628C5.3 20.9628 7.59999 20.9628 9.79999 20.9628C11 20.7539 12.1 20.8583 13.2 21.4851C13.1 21.4851 13.1 21.4851 13.2 21.4851ZM26.4 20.7539C26.4 14.7996 26.4 8.84534 26.4 2.89106C26.3 2.89106 26.3 2.89106 26.3 2.89106C24.1 2.89106 21.9 2.89106 19.7 2.89106C18.8 2.89106 18 3.20445 17.3 3.72675C16.3 4.56244 15.9 5.60705 15.9 6.86058C15.9 11.6658 15.9 16.471 15.9 21.2762C15.9 21.3807 15.9 21.4851 15.9 21.5896C16 21.5896 16 21.4851 16.1 21.4851C16.9 20.9628 17.8 20.7539 18.8 20.7539C21.2 20.7539 23.6 20.7539 26.1 20.7539C26.1 20.7539 26.3 20.7539 26.4 20.7539Z" fill="#E2E2E7"/>
</svg>
