<svg width="30" height="29" viewBox="0 0 30 29" fill="none" xmlns="http://www.w3.org/2000/svg">
<path d="M0 25.2532C0 18.7777 0 12.3021 0 5.82663C0.0976196 5.24383 0.153402 4.64665 0.292859 4.07105C0.767011 2.09242 1.87569 0.725364 3.86295 0.257688C4.1558 0.185738 4.44866 0.135373 4.74152 0.0706177C10.9473 0.0706177 17.1532 0.0706177 23.359 0.0706177C23.3869 0.0922027 23.4148 0.120983 23.4426 0.128178C25.2695 0.595854 26.2109 1.8334 26.2109 3.76166C26.2109 4.27251 26.2109 4.78335 26.2109 5.287C27.6194 5.63236 28.5258 6.47418 28.9093 7.8916C28.9442 8.01391 28.9721 8.14342 29.007 8.26574C29.007 13.9282 29.007 19.5835 29.007 25.246C28.9791 25.3323 28.9512 25.4258 28.9303 25.5122C28.6025 26.8792 27.7867 27.7642 26.4758 28.1528C26.3433 28.1887 26.2109 28.2247 26.0784 28.2607C18.3595 28.2607 10.6475 28.2607 2.92859 28.2607C2.85189 28.2391 2.77518 28.2031 2.69848 28.1887C1.30392 27.8578 0.439288 26.9656 0.0767011 25.5482C0.0557826 25.4546 0.0278913 25.3539 0 25.2532ZM2.22433 7.54624C2.22433 7.72611 2.22433 7.85562 2.22433 7.98513C2.22433 13.5253 2.22433 19.0655 2.22433 24.5984C2.22433 25.5554 2.63573 25.9727 3.56311 25.9727C10.8497 25.9727 18.1293 25.9727 25.416 25.9727C26.3712 25.9727 26.7757 25.5554 26.7757 24.5768C26.7757 19.3748 26.7757 14.1728 26.7757 8.97085C26.7757 7.95635 26.3852 7.54624 25.409 7.54624C17.8365 7.54624 10.257 7.54624 2.68454 7.54624C2.55205 7.54624 2.4126 7.54624 2.22433 7.54624ZM2.35682 5.22944C9.58066 5.22944 16.7696 5.22944 23.9935 5.22944C23.9935 4.70421 23.9935 4.20056 23.9935 3.7041C23.9935 2.79753 23.5682 2.36583 22.6896 2.36583C19.6355 2.36583 16.5814 2.36583 13.5273 2.36583C10.773 2.36583 8.01875 2.35144 5.27146 2.37302C3.48641 2.38741 2.45443 3.4091 2.35682 5.22944Z" fill="#E2E2E7"/>
<path d="M23.9796 17.0436C23.9796 18.1517 23.108 19.051 22.0342 19.051C20.9605 19.051 20.0889 18.1517 20.0889 17.0436C20.0889 15.9356 20.9605 15.0362 22.0342 15.0362C23.1011 15.0362 23.9796 15.9428 23.9796 17.0436Z" fill="#E2E2E7"/>
</svg>
