<svg width="17" height="20" viewBox="0 0 17 20" fill="none" xmlns="http://www.w3.org/2000/svg">
<path fill-rule="evenodd" clip-rule="evenodd" d="M0 1.00728C0 0.450973 0.450973 0 1.00728 0H15.1091C15.6654 0 16.1164 0.450973 16.1164 1.00728V18.6346C16.1164 19.0232 15.8929 19.3771 15.542 19.5441C15.1912 19.7111 14.7755 19.6614 14.474 19.4164L8.05821 14.2036L1.64246 19.4164C1.34087 19.6614 0.925241 19.7111 0.574377 19.5441C0.223514 19.3771 0 19.0232 0 18.6346V1.00728ZM2.01455 2.01455V16.5183L7.42303 12.124C7.7931 11.8233 8.32331 11.8233 8.69339 12.124L14.1019 16.5183V2.01455H2.01455Z" fill="#BDBDC7"/>
</svg>
