<svg width="23" height="19" viewBox="0 0 23 19" fill="none" xmlns="http://www.w3.org/2000/svg">
<path fill-rule="evenodd" clip-rule="evenodd" d="M0 2.79463C0 1.25323 1.25247 0 2.79413 0H13.7229C15.2647 0 16.5174 1.25313 16.5174 2.79463V8.76712C16.5174 10.3086 15.2646 11.5616 13.7229 11.5616H8.13313L5.87037 13.8248C5.59417 14.101 5.22487 14.2473 4.85027 14.2473C4.6646 14.2473 4.4773 14.2114 4.29935 14.1379L4.29841 14.1376C3.75952 13.9143 3.4081 13.3884 3.4081 12.805V11.5616H2.79413C1.25256 11.5616 0 10.3085 0 8.76712V2.79463ZM13.7229 9.91832C14.357 9.91832 14.8741 9.40118 14.8741 8.76712V2.79463C14.8741 2.16042 14.357 1.64324 13.7229 1.64324H2.79413C2.16045 1.64324 1.64324 2.16032 1.64324 2.79463V8.76712C1.64324 9.40128 2.16036 9.91832 2.79413 9.91832H4.22972C4.68349 9.91832 5.05134 10.2862 5.05134 10.7399V12.3198L7.21173 10.159C7.36582 10.0049 7.57482 9.91832 7.79276 9.91832H13.7229Z" fill="#BDBDC7"/>
<path fill-rule="evenodd" clip-rule="evenodd" d="M17.8103 6.96383C17.8103 6.51006 18.1782 6.14221 18.6319 6.14221H19.632C21.0505 6.14221 22.1838 7.30774 22.1839 8.71799V13.6818C22.1839 15.0921 21.0507 16.2579 19.6321 16.2579H19.3898V17.0378C19.3898 17.6186 19.0446 18.1501 18.5025 18.3778L18.5015 18.3782C18.3238 18.4526 18.1351 18.49 17.9465 18.49C17.5679 18.49 17.1971 18.3399 16.9215 18.0606C16.9215 18.0605 16.9216 18.0606 16.9215 18.0606L15.1437 16.2579H10.6725C9.40206 16.2579 8.36206 15.3226 8.15758 14.1175C8.11933 13.8921 8.17673 13.661 8.31596 13.4796L9.16105 12.3791C9.43741 12.0192 9.95321 11.9515 10.3131 12.2278C10.673 12.5042 10.7407 13.02 10.4644 13.3799L9.88111 14.1394C10.0392 14.4262 10.3398 14.6147 10.6725 14.6147H15.4874C15.7072 14.6147 15.9179 14.7028 16.0723 14.8594L17.7466 16.5569V15.4363C17.7466 14.9825 18.1144 14.6146 18.5682 14.6146H19.6321C20.1216 14.6146 20.5407 14.2062 20.5407 13.6818V8.71809C20.5407 8.71807 20.5407 8.71811 20.5407 8.71809C20.5406 8.19388 20.1217 7.78545 19.632 7.78545H18.6319C18.1782 7.78545 17.8103 7.4176 17.8103 6.96383Z" fill="#BDBDC7"/>
<path fill-rule="evenodd" clip-rule="evenodd" d="M4.10828 4.10815C4.10828 3.65438 4.47613 3.28653 4.92989 3.28653H11.5028C11.9566 3.28653 12.3245 3.65438 12.3245 4.10815C12.3245 4.56191 11.9566 4.92977 11.5028 4.92977H4.92989C4.47613 4.92977 4.10828 4.56191 4.10828 4.10815Z" fill="#BDBDC7"/>
<path fill-rule="evenodd" clip-rule="evenodd" d="M4.10828 6.57296C4.10828 6.11919 4.47613 5.75134 4.92989 5.75134H11.5028C11.9566 5.75134 12.3245 6.11919 12.3245 6.57296C12.3245 7.02673 11.9566 7.39458 11.5028 7.39458H4.92989C4.47613 7.39458 4.10828 7.02673 4.10828 6.57296Z" fill="#BDBDC7"/>
</svg>
