<svg width="20" height="20" viewBox="0 0 20 20" fill="none" xmlns="http://www.w3.org/2000/svg">
<path fill-rule="evenodd" clip-rule="evenodd" d="M2 9.66554C2 5.43198 5.43198 2 9.66554 2C11.5189 2 13.2186 2.65774 14.5441 3.75252L3.75252 14.5441C2.65774 13.2186 2 11.5189 2 9.66554ZM5.21644 15.9086C6.47091 16.8042 8.00669 17.3311 9.66554 17.3311C13.8991 17.3311 17.3311 13.8991 17.3311 9.66554C17.3311 8.00669 16.8042 6.47091 15.9086 5.21644L5.21644 15.9086ZM9.66554 0C4.32741 0 0 4.32741 0 9.66554C0 15.0037 4.32741 19.3311 9.66554 19.3311C15.0037 19.3311 19.3311 15.0037 19.3311 9.66554C19.3311 4.32741 15.0037 0 9.66554 0Z" fill="#BDBDC7"/>
</svg>
