<svg width="19" height="19" viewBox="0 0 19 19" fill="none" xmlns="http://www.w3.org/2000/svg">
<path d="M15.2 11.4C14.0569 11.4 13.034 11.9075 12.3372 12.7065L7.51521 10.2956C7.56984 10.0389 7.6 9.77289 7.6 9.5C7.6 9.22711 7.56984 8.96111 7.51521 8.70461L12.3372 6.29351C13.0338 7.0927 14.0569 7.6 15.2 7.6C17.2985 7.6 19 5.89855 19 3.8C19 1.70145 17.2985 0 15.2 0C13.1014 0 11.4 1.70145 11.4 3.8C11.4 4.07289 11.4302 4.33889 11.4848 4.59539L6.66283 7.00649C5.96624 6.2073 4.94333 5.7 3.8 5.7C1.70145 5.7 0 7.40145 0 9.5C0 11.5985 1.70145 13.3 3.8 13.3C4.94333 13.3 5.966 12.7925 6.66283 11.9935L11.485 14.4046C11.4302 14.6611 11.4 14.9271 11.4 15.2C11.4 17.2985 13.1014 19 15.2 19C17.2985 19 19 17.2985 19 15.2C19 13.1014 17.2985 11.4 15.2 11.4ZM15.2 1.9C16.2493 1.9 17.1 2.75073 17.1 3.8C17.1 4.84928 16.2493 5.7 15.2 5.7C14.1507 5.7 13.3 4.84928 13.3 3.8C13.3 2.75073 14.1507 1.9 15.2 1.9ZM3.8 11.4C2.75073 11.4 1.9 10.5493 1.9 9.5C1.9 8.45072 2.75073 7.6 3.8 7.6C4.84928 7.6 5.7 8.45072 5.7 9.5C5.7 10.5493 4.84928 11.4 3.8 11.4ZM15.2 17.1C14.1507 17.1 13.3 16.2493 13.3 15.2C13.3 14.1507 14.1507 13.3 15.2 13.3C16.2493 13.3 17.1 14.1507 17.1 15.2C17.1 16.2493 16.2493 17.1 15.2 17.1Z" fill="#BDBDC7"/>
</svg>
