<svg width="28" height="20" viewBox="0 0 28 20" fill="none" xmlns="http://www.w3.org/2000/svg">
<path fill-rule="evenodd" clip-rule="evenodd" d="M10.5365 2C8.63688 2 7.09692 3.53996 7.09692 5.4396C7.09692 7.33923 8.63688 8.8792 10.5365 8.8792C12.4362 8.8792 13.9761 7.33924 13.9761 5.4396C13.9761 3.53996 12.4362 2 10.5365 2ZM5.09692 5.4396C5.09692 2.43539 7.53232 0 10.5365 0C13.5407 0 15.9761 2.43539 15.9761 5.4396C15.9761 8.4438 13.5407 10.8792 10.5365 10.8792C7.53232 10.8792 5.09692 8.4438 5.09692 5.4396ZM6.07813 10.7301C6.68358 10.4886 7.41714 10.5902 7.91788 10.9897L7.93461 11.003L7.95074 11.0171C8.53092 11.522 9.42049 11.8957 10.5359 11.8957C11.6513 11.8957 12.5408 11.522 13.121 11.0171L13.1371 11.003L13.1539 10.9897C13.6531 10.5914 14.3838 10.4892 14.9882 10.728C16.4455 11.2937 17.6301 12.3697 18.4725 13.5731C19.3139 14.775 19.863 16.1734 19.9876 17.4658L19.9922 17.5137V17.5618C19.9922 18.5366 19.1097 19.1239 18.2875 19.1239H2.71372C2.29321 19.1239 1.87525 18.9873 1.55277 18.73C1.25628 18.4935 0.900997 18.0151 1.02291 17.3909C1.35956 14.9059 3.23746 11.8955 6.06906 10.7338L6.07812 10.7301L6.07813 10.7301ZM6.7472 12.6182C4.90658 13.4134 3.53603 15.3772 3.10734 17.1239H17.9127C17.7462 16.3504 17.379 15.4984 16.8341 14.72C16.1765 13.7806 15.3073 13.0151 14.3261 12.6169C13.3638 13.4077 12.0413 13.8957 10.5359 13.8957C9.03128 13.8957 7.70936 13.4083 6.7472 12.6182ZM23.6002 4C23.8562 3.99998 24.1122 4.09761 24.3074 4.29289L26.9074 6.89289C27.298 7.28342 27.298 7.91658 26.9074 8.30711C26.5169 8.69763 25.8838 8.69763 25.4932 8.30711L24.6003 7.41421V18.3999C24.6003 18.9522 24.1526 19.3999 23.6003 19.3999C23.0481 19.3999 22.6003 18.9522 22.6003 18.3999V7.41412L21.7074 8.30711C21.3168 8.69763 20.6837 8.69763 20.2931 8.30711C19.9026 7.91658 19.9026 7.28342 20.2931 6.89289L22.8931 4.29289C23.0508 4.13528 23.2479 4.04128 23.4526 4.01089C23.5016 4.00363 23.5509 4 23.6002 4Z" fill="#4E8EF8"/>
</svg>
