<svg width="28" height="28" viewBox="0 0 28 28" fill="none" xmlns="http://www.w3.org/2000/svg">
<path d="M7.16158 12.9328C7.58169 12.9328 7.95512 13.3208 7.95512 13.7574V15.1641C7.95512 15.6007 7.58169 15.9887 7.16158 15.9887C6.74147 15.9887 6.36804 15.6007 6.36804 15.1641V13.7574C6.36804 13.2723 6.69479 12.9328 7.16158 12.9328Z" fill="#4E8EF8"/>
<path fill-rule="evenodd" clip-rule="evenodd" d="M6.69783 13.2672C6.5877 13.3816 6.51802 13.549 6.51802 13.7574V15.1641C6.51802 15.5233 6.82967 15.8387 7.16155 15.8387C7.49344 15.8387 7.80509 15.5233 7.80509 15.1641V13.7574C7.80509 13.3982 7.49344 13.0828 7.16155 13.0828C6.96591 13.0828 6.80755 13.1532 6.69783 13.2672ZM6.48166 13.0592C6.65201 12.8821 6.89041 12.7828 7.16155 12.7828C7.66989 12.7828 8.10509 13.2435 8.10509 13.7574V15.1641C8.10509 15.678 7.66989 16.1387 7.16155 16.1387C6.65322 16.1387 6.21802 15.678 6.21802 15.1641V13.7574C6.21802 13.4807 6.31171 13.2358 6.48166 13.0592Z" fill="#4E8EF8"/>
<path d="M7.16158 18.9962C7.58169 18.9962 7.95512 19.3843 7.95512 19.8208V21.2275C7.95512 21.6641 7.58169 22.0522 7.16158 22.0522C6.74147 22.0522 6.36804 21.6641 6.36804 21.2275V19.8208C6.36804 19.3843 6.69479 18.9962 7.16158 18.9962Z" fill="#4E8EF8"/>
<path fill-rule="evenodd" clip-rule="evenodd" d="M7.16155 19.1462C6.78858 19.1462 6.51802 19.4557 6.51802 19.8208V21.2275C6.51802 21.5868 6.82967 21.9022 7.16155 21.9022C7.49344 21.9022 7.80509 21.5868 7.80509 21.2275V19.8208C7.80509 19.4616 7.49344 19.1462 7.16155 19.1462ZM6.21802 19.8208C6.21802 19.3128 6.60095 18.8462 7.16155 18.8462C7.66989 18.8462 8.10509 19.3069 8.10509 19.8208V21.2275C8.10509 21.7415 7.66989 22.2022 7.16155 22.2022C6.65322 22.2022 6.21802 21.7415 6.21802 21.2275V19.8208Z" fill="#4E8EF8"/>
<path d="M7.16158 6.86932C7.58169 6.86932 7.95512 7.25738 7.95512 7.69395V9.10067C7.95512 9.53723 7.58169 9.92529 7.16158 9.92529C6.74147 9.92529 6.36804 9.53723 6.36804 9.10067V7.69395C6.36804 7.20888 6.69479 6.86932 7.16158 6.86932Z" fill="#4E8EF8"/>
<path fill-rule="evenodd" clip-rule="evenodd" d="M6.69783 7.20375C6.5877 7.31818 6.51802 7.48562 6.51802 7.69396V9.10067C6.51802 9.45988 6.82967 9.7753 7.16155 9.7753C7.49344 9.7753 7.80509 9.45988 7.80509 9.10067V7.69396C7.80509 7.33475 7.49344 7.01933 7.16155 7.01933C6.96591 7.01933 6.80755 7.08973 6.69783 7.20375ZM6.48166 6.99573C6.65201 6.81871 6.89041 6.71933 7.16155 6.71933C7.66989 6.71933 8.10509 7.18003 8.10509 7.69396V9.10067C8.10509 9.6146 7.66989 10.0753 7.16155 10.0753C6.65322 10.0753 6.21802 9.6146 6.21802 9.10067V7.69396C6.21802 7.41722 6.31171 7.17234 6.48166 6.99573Z" fill="#4E8EF8"/>
<path d="M12.0163 18.9962C12.4364 18.9962 12.8099 19.3843 12.8099 19.8208V21.2275C12.8099 21.6641 12.4364 22.0522 12.0163 22.0522C11.5962 22.0522 11.2228 21.6641 11.2228 21.2275V19.8208C11.2228 19.3843 11.5962 18.9962 12.0163 18.9962Z" fill="#4E8EF8"/>
<path fill-rule="evenodd" clip-rule="evenodd" d="M12.0163 19.1462C11.6844 19.1462 11.3728 19.4616 11.3728 19.8208V21.2275C11.3728 21.5868 11.6844 21.9022 12.0163 21.9022C12.3482 21.9022 12.6598 21.5868 12.6598 21.2275V19.8208C12.6598 19.4616 12.3482 19.1462 12.0163 19.1462ZM11.0728 19.8208C11.0728 19.3069 11.508 18.8462 12.0163 18.8462C12.5246 18.8462 12.9598 19.3069 12.9598 19.8208V21.2275C12.9598 21.7415 12.5246 22.2022 12.0163 22.2022C11.508 22.2022 11.0728 21.7415 11.0728 21.2275V19.8208Z" fill="#4E8EF8"/>
<path d="M12.0163 12.9328C12.4364 12.9328 12.8099 13.3208 12.8099 13.7574V15.1641C12.8099 15.6007 12.4364 15.9887 12.0163 15.9887C11.5962 15.9887 11.2228 15.6007 11.2228 15.1641V13.7574C11.2228 13.2723 11.5962 12.9328 12.0163 12.9328Z" fill="#4E8EF8"/>
<path fill-rule="evenodd" clip-rule="evenodd" d="M12.0163 13.0828C11.6787 13.0828 11.3728 13.3555 11.3728 13.7574V15.1641C11.3728 15.5233 11.6844 15.8387 12.0163 15.8387C12.3482 15.8387 12.6598 15.5233 12.6598 15.1641V13.7574C12.6598 13.3982 12.3482 13.0828 12.0163 13.0828ZM11.0728 13.7574C11.0728 13.1891 11.5137 12.7828 12.0163 12.7828C12.5246 12.7828 12.9598 13.2435 12.9598 13.7574V15.1641C12.9598 15.678 12.5246 16.1387 12.0163 16.1387C11.508 16.1387 11.0728 15.678 11.0728 15.1641V13.7574Z" fill="#4E8EF8"/>
<path d="M12.0163 6.86932C12.4364 6.86932 12.8099 7.25738 12.8099 7.69395V9.10067C12.8099 9.53723 12.4364 9.92529 12.0163 9.92529C11.5962 9.92529 11.2228 9.53723 11.2228 9.10067V7.69395C11.2228 7.20888 11.5962 6.86932 12.0163 6.86932Z" fill="#4E8EF8"/>
<path fill-rule="evenodd" clip-rule="evenodd" d="M12.0163 7.01933C11.6787 7.01933 11.3728 7.29206 11.3728 7.69396V9.10067C11.3728 9.45988 11.6844 9.7753 12.0163 9.7753C12.3482 9.7753 12.6598 9.45988 12.6598 9.10067V7.69396C12.6598 7.33475 12.3482 7.01933 12.0163 7.01933ZM11.0728 7.69396C11.0728 7.1257 11.5137 6.71933 12.0163 6.71933C12.5246 6.71933 12.9598 7.18003 12.9598 7.69396V9.10067C12.9598 9.6146 12.5246 10.0753 12.0163 10.0753C11.508 10.0753 11.0728 9.6146 11.0728 9.10067V7.69396Z" fill="#4E8EF8"/>
<path d="M21.072 16.4254H22.6124C23.0325 16.4254 23.4059 16.8134 23.4059 17.25C23.4059 17.6865 23.0325 18.0746 22.6124 18.0746H21.072C20.6519 18.0746 20.2784 17.6865 20.2784 17.25C20.2784 16.8134 20.6519 16.4254 21.072 16.4254Z" fill="#4E8EF8"/>
<path fill-rule="evenodd" clip-rule="evenodd" d="M21.072 16.5754C20.7401 16.5754 20.4284 16.8908 20.4284 17.25C20.4284 17.6092 20.7401 17.9246 21.072 17.9246H22.6123C22.9442 17.9246 23.2559 17.6092 23.2559 17.25C23.2559 16.8908 22.9442 16.5754 22.6123 16.5754H21.072ZM20.1284 17.25C20.1284 16.7361 20.5636 16.2754 21.072 16.2754H22.6123C23.1207 16.2754 23.5559 16.7361 23.5559 17.25C23.5559 17.7639 23.1207 18.2246 22.6123 18.2246H21.072C20.5636 18.2246 20.1284 17.7639 20.1284 17.25Z" fill="#4E8EF8"/>
<path d="M21.072 20.4514H22.6124C23.0325 20.4514 23.4059 20.8395 23.4059 21.276C23.4059 21.7126 23.0325 22.1007 22.6124 22.1007H21.072C20.6519 22.1007 20.2784 21.7126 20.2784 21.276C20.2784 20.8395 20.6519 20.4514 21.072 20.4514Z" fill="#4E8EF8"/>
<path fill-rule="evenodd" clip-rule="evenodd" d="M21.072 20.6014C20.7401 20.6014 20.4284 20.9168 20.4284 21.276C20.4284 21.6353 20.7401 21.9507 21.072 21.9507H22.6123C22.9442 21.9507 23.2559 21.6353 23.2559 21.276C23.2559 20.9168 22.9442 20.6014 22.6123 20.6014H21.072ZM20.1284 21.276C20.1284 20.7621 20.5636 20.3014 21.072 20.3014H22.6123C23.1207 20.3014 23.5559 20.7621 23.5559 21.276C23.5559 21.79 23.1207 22.2507 22.6123 22.2507H21.072C20.5636 22.2507 20.1284 21.79 20.1284 21.276Z" fill="#4E8EF8"/>
<path d="M18.1777 27H23.8725C25.5996 27 27 25.5448 27 23.75V11.6716H18.1777V1H1V27H16.5907H18.1777ZM25.4129 13.3209V23.75C25.4129 24.6231 24.7127 25.3507 23.8725 25.3507H18.1777V13.2724L25.4129 13.3209ZM2.58707 25.3507V2.64925H16.5907V11.6231V25.3022L2.58707 25.3507Z" fill="#4E8EF8"/>
<path fill-rule="evenodd" clip-rule="evenodd" d="M0.849976 0.850006H18.3277V11.5216H27.15V23.75C27.15 25.6221 25.6878 27.15 23.8725 27.15H0.849976V0.850006ZM1.14998 1.15001V26.85H23.8725C25.5114 26.85 26.85 25.4674 26.85 23.75V11.8216H18.0277V1.15001H1.14998ZM2.43705 2.49926H16.7406V25.4517L2.43705 25.5013V2.49926ZM2.73705 2.79926V25.2002L16.4406 25.1528V2.79926H2.73705ZM18.0277 13.1214L25.5629 13.1719V23.75C25.5629 24.7005 24.8009 25.5008 23.8725 25.5008H18.0277V13.1214ZM18.3277 13.4234V25.2008H23.8725C24.6245 25.2008 25.2629 24.5458 25.2629 23.75V13.4699L18.3277 13.4234Z" fill="#4E8EF8"/>
</svg>
