<svg width="23" height="25" viewBox="0 0 23 25" fill="none" xmlns="http://www.w3.org/2000/svg">
<path d="M19.4545 2.27273H16.9091V0.909091C16.9091 0.363636 16.5455 0 16 0C15.4545 0 15.0909 0.363636 15.0909 0.909091V2.27273H7.63636V0.909091C7.63636 0.363636 7.27273 0 6.72727 0C6.18182 0 5.81818 0.363636 5.81818 0.909091V2.27273H3.18182C1.45455 2.27273 0 3.72727 0 5.54545V21.7273C0 23.5455 1.45455 24.9091 3.18182 24.9091H19.3636C21.1818 24.9091 22.5455 23.4545 22.5455 21.7273V5.54545C22.6364 3.72727 21.1818 2.27273 19.4545 2.27273ZM3.18182 4.09091H5.72727V5.45455C5.72727 6 6.09091 6.36364 6.63636 6.36364C7.18182 6.36364 7.54545 6 7.54545 5.45455V4.09091H15V5.45455C15 6 15.3636 6.36364 15.9091 6.36364C16.4545 6.36364 16.8182 6 16.8182 5.45455V4.09091H19.3636C20.1818 4.09091 20.7273 4.72727 20.7273 5.45455V9.18182H1.81818V5.54545C1.81818 4.72727 2.45455 4.09091 3.18182 4.09091ZM19.4545 23.1818H3.18182C2.36364 23.1818 1.81818 22.5455 1.81818 21.8182V11.0909H20.8182V21.7273C20.8182 22.5455 20.1818 23.1818 19.4545 23.1818Z" fill="#4E8EF8"/>
</svg>
