<svg width="31" height="29" viewBox="0 0 31 29" fill="none" xmlns="http://www.w3.org/2000/svg">
<path d="M22.232 4.08068C22.2043 3.83029 22.0477 3.60758 21.8197 3.49212L15.8399 0.462573C15.6261 0.354232 15.3736 0.354232 15.1598 0.462573L9.17977 3.49192C8.92688 3.62002 8.76747 3.87944 8.76747 4.16304V4.16314V4.16324V9.21034L0.429194 13.2664C0.178805 13.3855 0.0140859 13.6326 0.000643579 13.9096C-0.0127988 14.1866 0.127243 14.4485 0.364992 14.5911L5.62266 17.7459V23.2571C5.62266 23.541 5.78247 23.8007 6.03576 23.9286L15.1605 28.5378C15.2672 28.5916 15.3835 28.6186 15.4998 28.6186C15.6161 28.6186 15.7323 28.5916 15.8391 28.5378L24.9637 23.9286C25.217 23.8007 25.3768 23.541 25.3768 23.2571V17.7459L30.6345 14.5911C30.8723 14.4485 31.0124 14.1866 30.9989 13.9096C30.9855 13.6326 30.8209 13.3855 30.5705 13.2665L22.232 9.20994V4.08068ZM22.9577 11.2686L22.2321 11.633V10.899L22.9577 11.2686ZM15.4999 1.97715L19.8149 4.16324L15.4999 6.34923L11.1847 4.16304L15.4999 1.97715ZM8.76737 10.8991V11.6328L8.04209 11.2686L8.76737 10.8991ZM2.34283 14.0231L6.3659 12.111L13.9947 15.9411L9.95181 18.5889L2.34283 14.0231ZM14.7475 26.6434L7.1275 22.7943V18.6489L9.58234 20.1219C9.70162 20.1936 9.83564 20.2292 9.96946 20.2292C10.1132 20.2292 10.2567 20.188 10.3817 20.1062L14.7475 17.2469V26.6434ZM15.4999 15.0128L10.2722 12.3883V5.38759L15.1599 7.8638C15.2668 7.91797 15.3833 7.94506 15.5 7.94506C15.6166 7.94506 15.7331 7.91797 15.8401 7.8638L20.7275 5.38779V12.3884L15.4999 15.0128ZM23.8722 22.7943L16.2523 26.6434V17.247L20.6179 20.1063C20.7429 20.1881 20.8865 20.2293 21.0301 20.2293C21.1639 20.2293 21.298 20.1937 21.4172 20.122L23.8722 18.6489V22.7943ZM21.0476 18.5889L17.0047 15.9411L24.6336 12.1109L28.6568 14.023L21.0476 18.5889Z" fill="#4E8EF8"/>
</svg>
