<svg width="16" height="20" viewBox="0 0 16 20" fill="none" xmlns="http://www.w3.org/2000/svg">
<path fill-rule="evenodd" clip-rule="evenodd" d="M0 1.05664C0 0.504356 0.447715 0.0566406 1 0.0566406H15C15.5523 0.0566406 16 0.504356 16 1.05664V18.5566C16 18.9424 15.7781 19.2938 15.4298 19.4596C15.0814 19.6254 14.6688 19.576 14.3694 19.3328L8 14.1576L1.63059 19.3328C1.33119 19.576 0.918557 19.6254 0.570228 19.4596C0.221899 19.2938 0 18.9424 0 18.5566V1.05664ZM2 2.05664V16.4557L7.36941 12.093C7.73681 11.7945 8.26319 11.7945 8.63059 12.093L14 16.4557V2.05664H2Z" fill="#4E8EF8"/>
</svg>
