<svg width="10" height="13" viewBox="0 0 10 13" fill="none" xmlns="http://www.w3.org/2000/svg">
<path d="M8.25269 5.0056C8.50269 5.0056 8.73656 5.0056 8.96774 5.0056C9.57258 5.00829 10 5.43285 10 6.03745C10 7.67926 10 9.32376 10 10.9656C10 11.5702 9.57527 12.0001 8.97043 12.0001C6.32258 12.0028 3.67742 12.0028 1.02957 12.0001C0.424731 12.0001 0 11.5728 0 10.9683C0 9.32913 0 7.69001 0 6.05357C0 5.43016 0.422043 5.01366 1.04839 5.00829C1.27688 5.00829 1.50269 5.00829 1.75 5.00829C1.75 4.95186 1.75 4.90349 1.75 4.85513C1.75 4.33921 1.75 3.82597 1.75 3.31005C1.75269 1.66824 2.83333 0.362315 4.44624 0.0532994C6.1586 -0.274525 7.91667 0.9481 8.19624 2.67052C8.23118 2.89086 8.24731 3.11658 8.25 3.33692C8.25806 3.88777 8.25269 4.43863 8.25269 5.0056ZM3.01613 4.99754C4.34677 4.99754 5.66667 4.99754 6.98387 4.99754C6.98925 4.97605 6.99731 4.9653 6.99731 4.95186C6.99462 4.2989 7.03226 3.64056 6.97581 2.99297C6.88979 2.03906 6.07527 1.31623 5.10215 1.25443C4.16667 1.19531 3.26882 1.83753 3.06989 2.76995C2.91398 3.50083 3.01075 4.25053 3.01613 4.99754ZM4.99462 10.2508C5.12366 10.2508 5.25538 10.2535 5.38441 10.2508C5.62097 10.2427 5.77957 10.0466 5.74194 9.81549C5.6828 9.45273 5.62634 9.08998 5.56452 8.72991C5.54839 8.63586 5.5672 8.57943 5.64247 8.51763C6.00538 8.21667 6.10215 7.71688 5.88979 7.30306C5.68011 6.89194 5.22312 6.67697 4.77151 6.78714C4.38172 6.88119 4.12634 7.13109 4.03226 7.52072C3.93548 7.92109 4.05376 8.26504 4.37097 8.53106C4.4328 8.58481 4.4543 8.6278 4.44086 8.70841C4.37634 9.07386 4.32258 9.44199 4.26075 9.80743C4.22043 10.0573 4.37634 10.2481 4.63172 10.2535C4.75269 10.2535 4.87366 10.2508 4.99462 10.2508Z" fill="#BDBDC7"/>
</svg>
