<svg width="26" height="26" viewBox="0 0 26 26" fill="none" xmlns="http://www.w3.org/2000/svg">
<circle r="3.33333" transform="matrix(-1 0 0 1 13.0002 12.6667)" fill="#4E8EF8"/>
<path d="M3.00024 12.6667C3.00024 12.6667 7.4774 19.3333 13.0002 19.3333C18.5231 19.3333 23.0002 12.6667 23.0002 12.6667C23.0002 12.6667 18.5231 6 13.0002 6C7.4774 6 3.00024 12.6667 3.00024 12.6667Z" stroke="#4E8EF8" stroke-width="2" stroke-linejoin="round"/>
<path d="M25.0608 3.47472C25.6465 2.88894 25.6465 1.93919 25.0608 1.3534C24.475 0.767616 23.5252 0.767616 22.9394 1.3534L1.35365 22.9392C0.76786 23.525 0.76786 24.4747 1.35365 25.0605C1.93943 25.6463 2.88918 25.6463 3.47497 25.0605L25.0608 3.47472Z" fill="#4E8EF8" stroke="white" stroke-linecap="round"/>
</svg>
