<svg width="171" height="39" viewBox="0 0 171 39" fill="none" xmlns="http://www.w3.org/2000/svg">
<path d="M6.43799 32.7162L9.70101 39.0001L12.964 32.7162L9.70101 29.6967L6.43799 32.7162Z" fill="#ED5338"/>
<path d="M9.70088 3.09216C8.99536 3.4186 0 7.74387 0 14.8438C0 20.8829 5.29139 29.9415 5.29139 29.9415L9.70088 25.861L14.1104 29.9415C14.1104 29.9415 19.4018 20.8013 19.4018 14.8438C19.4018 7.74387 10.4064 3.4186 9.70088 3.09216ZM12.6111 23.0863L9.70088 20.4749L6.79061 23.168C6.61423 22.7599 4.67406 17.8634 4.67406 14.6806C4.67406 10.437 9.34812 7.9887 9.70088 7.82548C10.0536 7.9887 14.7277 10.437 14.7277 14.6806C14.6395 17.8634 12.6993 22.7599 12.6111 23.0863Z" fill="#C59368"/>
<path d="M19.358 6.58564e-06L16.0535 3.05884L19.359 6.1168L22.6635 3.05797L19.358 6.58564e-06Z" fill="#C59368"/>
<path d="M11.9938 14.5173C11.9938 15.6598 10.9356 16.6391 9.70089 16.6391C8.46624 16.6391 7.40796 15.6598 7.40796 14.5173C7.40796 13.3748 8.46624 12.3955 9.70089 12.3955C11.0237 12.4771 11.9938 13.3748 11.9938 14.5173Z" fill="#C59368"/>
<path d="M28.75 25.1264V12.069H32.9831L37.2162 16.4759L41.0966 12.069H45.2415V25.1264H40.5674V18.6793L37.128 22.2701H37.0398L33.4241 18.6793V25.1264H28.75Z" fill="#562212"/>
<path d="M47.1816 18.5978C47.1816 16.5576 47.8872 15.007 49.2982 13.7013C50.7092 12.3955 52.6494 11.7426 55.0305 11.7426C57.4117 11.7426 59.2636 12.3955 60.6747 13.7013C62.0857 15.007 62.8794 16.6392 62.8794 18.5978C62.8794 20.638 62.1739 22.1886 60.6747 23.4943C59.2636 24.8001 57.3235 25.4529 55.0305 25.4529C52.6494 25.4529 50.7974 24.8001 49.2982 23.4943C47.8872 22.1886 47.1816 20.5564 47.1816 18.5978ZM55.0305 21.3725C56.618 21.3725 57.8526 20.3116 57.8526 18.5978C57.8526 16.9656 56.618 15.7415 55.0305 15.7415C53.4431 15.7415 52.2085 16.884 52.2085 18.5978C52.2085 20.1484 53.4431 21.3725 55.0305 21.3725Z" fill="#562212"/>
<path d="M69.5818 25.1265H64.9077V12.0691H69.5818V18.9243L74.6086 12.0691H79.2827V25.1265H74.6086V18.2714L69.5818 25.1265ZM70.9046 5.62201C70.9046 6.76453 71.3456 7.3358 72.2275 7.3358C73.0212 7.3358 73.4621 6.76453 73.4621 5.62201H77.5189C77.5189 8.47832 75.6669 10.5185 72.2275 10.5185C68.5235 10.5185 66.8479 8.47832 66.8479 5.62201H70.9046Z" fill="#562212"/>
<path d="M94.8921 6.27477C94.363 6.92764 93.8339 7.33569 93.0402 7.58051C92.3346 7.82534 91.4527 7.98856 90.3945 8.15177C89.3362 8.31499 88.4543 8.55982 87.6606 8.88625C85.544 9.78395 84.3094 11.9058 84.0448 15.1701H84.133C85.0149 13.3747 87.3078 12.1506 89.689 12.1506C93.7457 12.1506 96.215 14.6805 96.215 18.6793C96.215 20.5563 95.5095 22.1069 94.1866 23.4126C92.8638 24.7184 91.1 25.3712 88.9834 25.3712C86.6905 25.3712 84.8385 24.6368 83.5157 23.1678C82.1928 21.6988 81.4873 19.7402 81.4873 17.2104C81.4873 11.5793 83.2511 8.07017 86.6905 6.68281C87.5724 6.35638 88.4543 6.11155 89.4244 5.94833C91.3646 5.6219 92.511 5.45868 93.3047 4.39777L94.8921 6.27477ZM89.0716 23.1678C90.3945 23.1678 91.5409 22.7598 92.4228 21.8621C93.3047 21.046 93.7457 19.9851 93.7457 18.7609C93.7457 16.1494 92.0701 14.354 89.248 14.354C88.0133 14.354 86.9551 14.6805 86.0732 15.3334C85.1913 15.9862 84.6621 16.8023 84.3976 17.7C84.3094 21.046 86.2496 23.1678 89.0716 23.1678Z" fill="#562212"/>
<path d="M101.154 25.1264H98.5962V12.069H101.154V21.7805L109.267 12.069H111.825V25.1264H109.267V15.3334L101.154 25.1264Z" fill="#562212"/>
<path d="M116.322 24.8817C115.176 24.5552 114.382 24.0656 113.853 23.5759L115.176 21.8621C116.322 22.6782 118.086 23.2495 119.321 23.2495C121.526 23.2495 123.025 22.3518 123.025 21.1277C123.025 20.0668 121.966 19.4139 120.291 19.4139H117.91V17.5369H120.114C121.526 17.5369 122.584 16.7208 122.584 15.6599C122.584 14.5173 121.437 13.7829 119.585 13.7829C118.086 13.7829 116.675 14.2725 115.352 15.2518L114.382 13.4564C115.529 12.3955 117.733 11.7426 119.938 11.7426C123.289 11.7426 125.23 13.0484 125.23 15.2518C125.23 16.7208 124.436 17.7817 122.76 18.353V18.4346C124.612 18.5978 125.67 19.9035 125.67 21.5357C125.67 23.984 123.201 25.4529 119.674 25.4529C118.527 25.3713 117.469 25.2081 116.322 24.8817Z" fill="#562212"/>
<path d="M138.458 25.1264V19.577H130.609V25.1264H128.14V12.069H130.609V17.3736H138.458V12.069H141.016V25.1264H138.458Z" fill="#562212"/>
<path d="M156.096 23.6577C154.773 24.8002 152.921 25.3715 150.804 25.3715C148.512 25.3715 146.66 24.8002 145.337 23.4944C143.926 22.2703 143.308 20.5565 143.308 18.5163C143.308 16.5577 143.926 14.9255 145.249 13.6198C146.571 12.314 148.335 11.6612 150.54 11.6612C152.392 11.6612 153.979 12.2324 155.214 13.3749C156.449 14.5175 157.066 15.9048 157.066 17.7002C157.066 18.2715 156.978 18.8427 156.89 19.2508H146.042C146.219 21.6991 148.159 23.168 150.981 23.168C152.833 23.168 154.244 22.6784 155.302 21.7807L156.096 23.6577ZM145.954 17.3738H154.508C154.42 15.1703 152.833 13.8646 150.452 13.8646C147.894 13.9462 146.219 15.3336 145.954 17.3738Z" fill="#562212"/>
<path d="M171 23.1679C169.854 24.5552 167.825 25.3713 165.532 25.3713C163.239 25.3713 161.476 24.8001 160.065 23.4943C158.653 22.2702 158.036 20.5564 158.036 18.5162C158.036 16.6392 158.742 15.007 160.065 13.7013C161.387 12.3955 163.151 11.7426 165.18 11.7426C167.649 11.7426 169.501 12.3139 170.735 13.4564L169.589 15.2518C168.531 14.3541 167.208 13.8645 165.532 13.8645C164.209 13.8645 163.063 14.2725 162.093 15.1702C161.123 16.0679 160.682 17.1288 160.682 18.5162C160.682 19.9035 161.123 21.0461 162.093 21.8621C163.063 22.6782 164.298 23.1679 165.709 23.1679C167.296 23.1679 168.707 22.5966 169.765 21.4541L171 23.1679Z" fill="#562212"/>
</svg>
