<svg width="60" height="60" viewBox="0 0 60 60" fill="none" xmlns="http://www.w3.org/2000/svg">
<path d="M57.1057 20.0429C56.6415 18.8177 55.2727 18.2002 54.047 18.6644C52.8222 19.1274 52.2048 20.4971 52.6687 21.7224C54.9489 27.7451 54.8062 34.3218 52.2671 40.2421C49.6607 46.3186 44.8442 51.017 38.7039 53.4713C32.564 55.9253 25.8359 55.842 19.7592 53.2359C17.9971 52.4803 16.3526 51.539 14.8438 50.4343C11.1474 47.7262 8.27209 44.0322 6.52955 39.6724C4.07518 33.5326 4.1582 26.8048 6.76441 20.7272C9.37074 14.6505 14.1882 9.95201 20.3282 7.49726C26.2035 5.14915 32.6167 5.13075 38.4829 7.41665L36.8018 10.2559C36.34 11.0359 36.6949 11.5564 37.5892 11.4117L45.5759 10.1224C46.4706 9.97778 46.9556 9.15983 46.6517 8.30608L43.9425 0.682464C43.6391 -0.171418 43.0127 -0.232735 42.5515 0.54764L40.9303 3.28486C33.7444 0.267203 25.8118 0.196109 18.5665 3.09215C11.2503 6.017 5.5105 11.6155 2.4041 18.8572C-0.701782 26.0987 -0.80144 34.1171 2.12354 41.4339C4.20061 46.6299 7.62616 51.0311 12.0319 54.258C13.8293 55.5746 15.7903 56.6961 17.8891 57.5958C25.131 60.7012 33.1481 60.8014 40.4646 57.8774C47.7822 54.9532 53.5216 49.3536 56.6272 42.1114C59.6528 35.0576 59.8228 27.2193 57.1057 20.0429Z" fill="#ED5338"/>
<path d="M18.3608 37H15.2408L20.0208 26.16H13.3008V23.66H23.3208V25.64L18.3608 37Z" fill="#ED5338"/>
<path d="M34.6992 37H24.6592V34.78C27.5126 32.66 29.3992 31.1533 30.3192 30.26C31.2526 29.3533 31.7192 28.5066 31.7192 27.72C31.7192 27.1733 31.5059 26.7466 31.0792 26.44C30.6526 26.1333 30.1459 25.98 29.5592 25.98C28.1592 25.98 26.9659 26.4933 25.9792 27.52L24.3592 25.64C24.9859 24.92 25.7526 24.38 26.6592 24.02C27.5792 23.6466 28.5259 23.46 29.4992 23.46C30.9659 23.46 32.1792 23.8466 33.1392 24.62C34.1126 25.3933 34.5992 26.4266 34.5992 27.72C34.5992 28.8133 34.1659 29.8866 33.2992 30.94C32.4459 31.98 31.0992 33.1666 29.2592 34.5H34.6992V37Z" fill="#ED5338"/>
<path d="M39.9654 30.238H41.7434V32.072C41.7434 32.5293 41.8601 32.856 42.0934 33.052C42.3268 33.2386 42.6861 33.332 43.1714 33.332C43.7221 33.332 44.1748 33.2433 44.5294 33.066V30.238H46.3214V37H44.5294V34.494C44.0161 34.774 43.3581 34.914 42.5554 34.914C41.6408 34.914 40.9781 34.7273 40.5674 34.354C40.1661 33.9713 39.9654 33.416 39.9654 32.688V30.238Z" fill="#ED5338"/>
</svg>
