<svg width="18" height="18" viewBox="0 0 18 18" fill="none" xmlns="http://www.w3.org/2000/svg">
<circle cx="9" cy="9" r="9" fill="#F6D616"/>
<path d="M6.26063 13.9999V12.5019H5.14062V11.1439H6.26063V10.0519H5.14062V8.31591H6.26063V4.00391H9.45263C10.7406 4.00391 11.6786 4.26524 12.2666 4.78791C12.864 5.31057 13.1626 6.02924 13.1626 6.94391C13.1626 7.48524 13.0413 7.99391 12.7986 8.46991C12.556 8.94591 12.15 9.32857 11.5806 9.61791C11.0206 9.90724 10.2553 10.0519 9.28463 10.0519H8.37462V11.1439H10.5306V12.5019H8.37462V13.9999H6.26063ZM9.07463 8.31591C9.67196 8.31591 10.1433 8.21324 10.4886 8.00791C10.8433 7.80257 11.0206 7.47124 11.0206 7.01391C11.0206 6.16457 10.4606 5.73991 9.34063 5.73991H8.37462V8.31591H9.07463Z" fill="white"/>
</svg>
